PathFileType	4	(X/Y/Z)	s02c0103.trc
DataRate	CameraRate	NumFrames	NumMarkers	Units	OrigDataRate	OrigDataStartFrame	OrigNumFrames
200	200	4	50	mm	200	1750	2000
Frame#	Time	racr			lacr			c7			jug			rlel			rdr			llel			ldr			s2			lic			ric			lasi			rasi			rpsi			lpsi			rgt			lgt			rth1			rth2			rth3			rth4			rlfc			rmfc			rsh1			rsh2			rsh3			rsh4			rlmal			rmmal			rtoe			rmt5			rmt1			lth1			lth2			lth4			lth3			llfc			lmfc			lsh1			lsh2			lsh3			lsh4			llmal			lmmal			lcal			ltoe			lmt5			SBIKE			LBIKE			RBIKE			
		X1	Y1	Z1	X2	Y2	Z2	X3	Y3	Z3	X4	Y4	Z4	X5	Y5	Z5	X6	Y6	Z6	X7	Y7	Z7	X8	Y8	Z8	X9	Y9	Z9	X10	Y10	Z10	X11	Y11	Z11	X12	Y12	Z12	X13	Y13	Z13	X14	Y14	Z14	X15	Y15	Z15	X16	Y16	Z16	X17	Y17	Z17	X18	Y18	Z18	X19	Y19	Z19	X20	Y20	Z20	X21	Y21	Z21	X22	Y22	Z22	X23	Y23	Z23	X24	Y24	Z24	X25	Y25	Z25	X26	Y26	Z26	X27	Y27	Z27	X28	Y28	Z28	X29	Y29	Z29	X30	Y30	Z30	X31	Y31	Z31	X32	Y32	Z32	X33	Y33	Z33	X34	Y34	Z34	X35	Y35	Z35	X36	Y36	Z36	X37	Y37	Z37	X38	Y38	Z38	X39	Y39	Z39	X40	Y40	Z40	X41	Y41	Z41	X42	Y42	Z42	X43	Y43	Z43	X44	Y44	Z44	X45	Y45	Z45	X46	Y46	Z46	X47	Y47	Z47	X48	Y48	Z48	X49	Y49	Z49	X50	Y50	Z50	
1750	8.7500	502.078441	1289.632680	-160.552367	518.904801	1296.319692	-485.582477	497.073542	1325.034253	-324.630351	447.381643	1193.608186	-320.609464	557.417733	1022.249787	-93.271572	708.339067	852.256673	-136.681503	548.240761	1024.424237	-585.393342	706.004218	854.523632	-518.805785	-6.118790	1112.428505	-347.781923	130.206258	1099.435720	-486.526044	113.550922	1129.829542	-198.325220	172.756237	1067.864374	-453.824064	161.850039	1113.252156	-236.540240	3.210195	1144.640949	-311.266723	19.856538	1146.200829	-399.432369	98.708695	1069.651933	-151.358793	78.875843	997.989629	-505.457538	184.841377	1063.550949	-151.334452	272.579059	1067.080621	-156.099902	349.108524	1038.614206	-129.190457	279.638845	1089.110469	-186.355130	483.824494	969.636043	-155.820136	477.847766	943.368621	-268.122426	456.162453	863.098875	-139.801029	422.777078	781.846346	-154.494996	358.136107	725.264453	-148.391721	435.316102	775.079921	-191.886816	276.207499	630.220913	-150.183430	291.815387	645.952394	-230.706584	429.902855	466.854552	-197.739756	331.216885	511.865204	-136.449662	356.841166	507.676283	-242.991867	171.997729	891.664621	-526.347136	231.255800	827.746775	-525.340570	261.648122	843.853016	-512.112879	249.193171	740.476537	-522.569984	296.008014	653.672834	-497.269021	303.064294	625.334935	-396.747238	273.382841	553.283011	-517.696797	280.484699	468.465261	-503.138910	239.741619	387.080874	-500.988356	301.318348	467.803387	-467.698684	211.635716	287.497412	-484.846790	230.859723	281.688508	-412.263170	139.452752	269.204433	-441.649056	388.709033	123.081212	-444.049632	284.142945	151.163033	-504.925941	-129.601990	869.235535	-315.049904	32.603822	82.026360	-515.222516	32.546912	82.147752	-115.583827	
1751	8.7550	501.077146	1290.953356	-160.049450	518.109875	1298.434487	-484.207040	495.901212	1326.386884	-323.585494	447.722625	1194.393457	-319.785595	556.840862	1023.189931	-93.136530	708.144297	852.936482	-136.548731	547.554571	1026.555616	-584.648872	704.990250	856.259183	-519.670468	-7.374800	1112.542875	-347.168027	128.718931	1100.245388	-486.458900	113.037866	1130.836847	-197.936002	171.467493	1068.627333	-453.947596	160.987039	1114.440651	-236.300552	1.393701	1145.559454	-310.240787	18.010054	1146.917939	-398.124452	98.087229	1070.645279	-150.848652	77.598057	998.493612	-505.183061	184.281702	1064.187159	-151.113121	272.014863	1067.662804	-156.110454	348.592412	1038.892089	-129.659905	278.917424	1090.019895	-186.187065	483.376926	970.788977	-157.422921	476.841157	944.570479	-269.644351	458.094116	864.256847	-140.631309	426.140827	782.103126	-155.235211	362.751997	724.298573	-148.580314	438.639990	775.508193	-192.656945	282.208252	626.952254	-149.818005	296.926566	643.051366	-230.346240	440.300646	469.073496	-197.990110	340.282808	510.810598	-136.363416	365.795603	507.683175	-242.950417	170.615402	892.454041	-526.075488	230.041732	828.605613	-525.555841	260.434768	844.780071	-512.484160	248.095952	741.320928	-522.957857	295.294509	654.525008	-497.716143	302.993446	626.252487	-397.004651	271.516455	554.602837	-517.794498	276.060147	469.634415	-502.398534	234.325263	389.201481	-500.967174	297.597609	468.598945	-467.709679	203.871768	290.273596	-484.745527	223.450206	284.277212	-411.747234	131.402090	273.171929	-441.495593	378.130608	122.952511	-443.953536	273.988963	152.648890	-504.812137	-129.778925	869.161458	-315.075603	32.570816	82.059804	-515.229050	32.530379	82.152242	-115.579052	
1752	8.7600	500.218537	1291.574668	-159.507248	517.314400	1299.633098	-483.060553	494.740955	1326.626426	-322.476605	448.740256	1193.861452	-318.614110	556.712909	1023.610037	-92.961644	707.891937	853.513668	-136.593299	546.897927	1027.920581	-583.910907	704.259339	856.647018	-519.689460	-8.802573	1112.844726	-346.318681	127.127732	1101.186876	-486.351743	112.551550	1131.581552	-197.507963	170.074370	1069.282181	-454.010306	159.734541	1114.745390	-236.797794	-0.324569	1146.851353	-309.203133	16.246717	1147.789686	-396.889482	97.403635	1071.600339	-150.571171	76.373492	999.026310	-504.905456	183.780061	1064.414592	-150.929641	271.509191	1067.514933	-156.171390	347.993728	1038.207441	-130.213988	278.397050	1090.045690	-186.112782	480.954669	971.227225	-157.616814	475.713918	944.451304	-270.990112	459.666682	863.916308	-141.388819	429.103973	781.123766	-155.953934	366.915627	722.215203	-148.747587	441.547709	774.765836	-193.333304	287.772509	622.796114	-149.337163	301.596266	639.318755	-230.025370	450.408571	470.875195	-198.210064	349.075740	509.133043	-136.231067	374.475385	507.167438	-242.938759	169.551663	893.262961	-525.765599	229.183801	829.643906	-525.643952	259.582236	845.964074	-512.695914	247.584192	742.405661	-523.095794	295.206084	655.857599	-497.987495	303.350680	627.556830	-397.225790	270.161000	556.283235	-517.838905	272.682448	471.255798	-502.313077	229.176722	391.777732	-500.867227	294.229823	469.865309	-467.680935	196.270101	293.733217	-484.623697	216.334194	287.337803	-411.137579	123.484903	277.631145	-441.283838	367.558765	123.524479	-443.927434	263.912852	154.824794	-504.691491	-129.970563	869.122617	-315.141005	32.528054	82.022973	-515.217245	32.481388	82.156164	-115.587699	
1753	8.7650	499.768010	1291.778412	-158.989098	516.927087	1300.113890	-482.003205	494.118721	1326.455206	-321.590963	449.672407	1193.166894	-317.605081	556.451329	1023.655997	-92.339605	707.459492	854.028876	-136.557220	546.264458	1028.538460	-583.482318	703.614235	856.893624	-519.945324	-9.546325	1112.984281	-345.812190	125.630976	1102.040240	-486.159400	112.129018	1132.315785	-197.118800	168.697673	1069.876982	-454.057712	158.944840	1115.671275	-236.967634	-1.679767	1148.251161	-308.235432	14.556413	1148.710289	-395.665344	96.574464	1072.275898	-150.428977	75.212883	999.477060	-504.744098	183.360626	1064.161142	-150.709657	271.003681	1066.662475	-156.259960	347.333279	1036.752557	-130.694896	277.993384	1089.420025	-186.063146	480.382777	969.649865	-158.836177	474.629997	943.113543	-272.149478	460.979381	862.217125	-141.992743	431.763538	778.731064	-156.485280	370.673780	718.750873	-148.800533	444.046610	772.596307	-193.952372	293.055765	617.482723	-149.054707	305.392338	634.728949	-230.139869	460.260945	472.359172	-198.433780	357.696881	506.731320	-136.009660	383.640606	506.014036	-243.636607	168.780028	894.236787	-525.373030	228.744480	830.949433	-525.561779	259.007665	847.389212	-512.699729	247.660746	743.792015	-523.046800	295.586583	657.497895	-498.171913	304.185346	629.256845	-397.260428	269.400731	558.315627	-517.861901	269.491985	473.165119	-501.583959	224.364835	394.928069	-500.855936	291.005315	471.351094	-467.075729	188.740668	297.675174	-484.427789	205.220460	292.759631	-408.703834	115.671759	282.636401	-441.045381	357.122412	124.838277	-443.901886	253.938951	157.610644	-504.624281	-130.185114	869.065314	-315.230826	32.502971	82.014751	-515.211704	32.469885	82.091595	-115.526788	
